<?xml version="1.0" standalone="no"?>
<!DOCTYPE svg PUBLIC "-//W3C//DTD SVG 20010904//EN"
 "http://www.w3.org/TR/2001/REC-SVG-20010904/DTD/svg10.dtd">
<svg version="1.0" xmlns="http://www.w3.org/2000/svg"
 width="1024.000000pt" height="1024.000000pt" viewBox="0 0 1024.000000 1024.000000"
 preserveAspectRatio="xMidYMid meet">

<g transform="translate(0.000000,1024.000000) scale(0.100000,-0.100000)"
fill="#000000" stroke="none">
<path d="M0 5120 l0 -5120 5120 0 5120 0 0 5120 0 5120 -5120 0 -5120 0 0
-5120z m6975 1909 c719 -61 1308 -578 1468 -1287 30 -132 32 -480 4 -612 -121
-569 -539 -1038 -1087 -1219 -191 -64 -271 -75 -520 -76 -246 0 -303 8 -490
67 -308 98 -604 312 -812 588 -73 97 -98 142 -241 438 -35 74 -21 72 -522 72
l-445 0 0 -130 0 -130 -260 0 -260 0 0 215 0 215 -195 0 -195 0 0 -345 0 -345
-272 0 -273 0 3 300 3 300 -201 0 -201 0 3 -265 3 -265 -262 0 -263 0 0 248 0
248 -57 19 c-111 38 -221 139 -277 255 -29 61 -31 72 -31 180 0 109 2 119 32
183 41 87 134 182 223 228 l65 34 1672 5 1671 5 27 25 c15 14 42 57 59 95 128
278 386 562 663 729 208 125 460 205 708 226 132 11 130 11 260 -1z"/>
<path d="M6783 6458 c-37 -28 -115 -90 -173 -137 -58 -48 -178 -144 -267 -214
-153 -121 -163 -130 -163 -162 0 -45 20 -55 109 -55 l71 0 0 -240 0 -240 185
0 185 0 0 193 c0 137 3 196 12 205 8 8 52 12 133 12 81 0 125 -4 133 -12 9 -9
12 -68 12 -205 l0 -193 180 0 180 0 0 240 0 240 76 0 c94 0 114 10 114 55 0
32 -7 40 -95 106 l-95 71 0 139 c0 179 0 179 -133 179 -104 0 -125 -9 -135
-57 l-7 -31 -109 79 c-59 44 -117 79 -127 79 -10 0 -48 -23 -86 -52z"/>
<path d="M7923 5739 c-265 -51 -318 -402 -79 -527 43 -22 64 -27 131 -27 86 0
116 11 187 67 90 70 121 227 66 333 -60 116 -183 178 -305 154z"/>
<path d="M6582 5248 c-59 -20 -100 -67 -140 -163 l-38 -90 -64 -3 c-71 -3 -90
-13 -90 -46 0 -33 19 -46 68 -46 38 0 43 -2 37 -17 -51 -127 -55 -148 -55
-332 l0 -180 30 -35 c71 -80 184 -47 211 61 l11 43 319 0 319 0 0 -29 c0 -43
39 -94 86 -110 50 -17 84 -10 127 28 l32 29 3 189 c3 189 3 189 -27 271 l-30
82 35 0 c47 0 74 16 74 43 0 36 -19 47 -86 47 l-62 0 -22 58 c-44 110 -72 152
-119 180 l-46 27 -270 2 c-170 1 -282 -2 -303 -9z m551 -92 c18 -7 39 -22 49
-32 16 -18 98 -214 98 -234 0 -6 -149 -10 -409 -10 l-409 0 39 103 c73 189 69
187 372 187 170 0 236 -3 260 -14z m-623 -471 c56 -11 81 -22 98 -41 42 -48
33 -54 -86 -54 -71 0 -112 4 -120 12 -7 7 -12 34 -12 60 0 45 2 48 23 43 12
-3 56 -12 97 -20z m840 -23 c0 -26 -5 -53 -12 -60 -15 -15 -238 -17 -238 -2 0
5 12 23 28 40 21 23 45 34 107 49 119 28 115 29 115 -27z"/>
</g>
</svg>
